<svg xmlns="http://www.w3.org/2000/svg" width="16" height="16"><path fill="#c2e4f8" d="M9 12.235a2.002 2.002 0 0 1-2.736-.743L3.767 7.166a1.995 1.995 0 0 1 .732-2.732l1.732-1 .501.867.501.868-.898.518c-.85.47-.32 1.331-.32 1.331l1.511 2.618s.451.876 1.348.361l.858-.495 1 1.734z"/><path fill="none" stroke="#249fe6" d="M9 12.235a2.002 2.002 0 0 1-2.736-.743L3.767 7.166a1.995 1.995 0 0 1 .732-2.732l1.732-1 .501.867.501.868-.898.518c-.85.47-.32 1.331-.32 1.331l1.511 2.618s.451.876 1.348.361l.858-.495 1 1.734zM9.149 5.317a2 2 0 0 1 1.414 2.45m-.897-4.382a4 4 0 0 1 2.829 4.9"/></svg>